<svg xmlns="http://www.w3.org/2000/svg" viewBox="0 0 512 512">
  <defs>
    <linearGradient id="brand" x1="0" y1="0" x2="1" y2="1">
      <stop offset="0%" stop-color="#c11a3c" />
      <stop offset="100%" stop-color="#eab63d" />
    </linearGradient>
  </defs>
  <rect width="512" height="512" rx="112" fill="url(#brand)" />
  <path
    d="M180 148h152c9 0 16 7 16 16v18c22 8 38 30 38 55v6c0 8-6 14-14 14h-2l14 132c2 20-14 37-34 37H182c-20 0-36-17-34-37l14-132h-2c-8 0-14-6-14-14v-6c0-25 16-47 38-55v-18c0-9 7-16 16-16z"
    fill="#fff8ec"
  />
  <circle cx="216" cy="292" r="12" fill="#c11a3c" />
  <circle cx="266" cy="326" r="10" fill="#eab63d" />
  <circle cx="300" cy="284" r="9" fill="#c11a3c" />
  <circle cx="252" cy="256" r="8" fill="#eab63d" />
</svg>
